<svg width="67" height="66" viewBox="0 0 67 66" fill="none" xmlns="http://www.w3.org/2000/svg">
<path d="M31.1406 27.6992H31.2109C31.1719 28.6523 31.1211 29.5625 31.1211 30.4492V33.7227H27.7812L27.8008 33.6797L29.7617 30.4492C30.2617 29.5156 30.6719 28.6523 31.1406 27.6992ZM32.1914 3.80859V0.589844C24.1602 0.914063 16.8789 4.15625 11.3594 9.28516L13.6289 11.5508C18.5508 7.00781 25.0391 4.12891 32.1914 3.80859ZM11.3594 57.0234C16.8789 62.1523 24.1602 65.3906 32.1914 65.7188V62.5039C25.0391 62.1797 18.5508 59.3047 13.6289 54.7617L11.3594 57.0234ZM4.17969 34.4141H0.960938C1.26953 42.4336 4.48047 49.7187 9.57812 55.2422L11.8516 52.9766C7.32812 48.0391 4.48047 41.5547 4.17969 34.4141ZM11.8516 13.332L9.57812 11.0664C4.48047 16.5938 1.26953 23.8789 0.960938 31.8984H4.17969C4.48047 24.7539 7.32812 18.2695 11.8516 13.332ZM62.8789 31.8984H66.1016C65.7891 23.8359 62.5391 16.5195 57.3984 10.9844L55.1289 13.2461C59.6992 18.1953 62.5781 24.7109 62.8789 31.8984ZM55.6211 9.20703C50.0703 4.08984 42.7617 0.874999 34.7109 0.585938V3.80469C41.8789 4.08594 48.3984 6.9375 53.3516 11.4727L55.6211 9.20703ZM34.7109 62.5078V65.7227C42.7617 65.4375 50.0781 62.2187 55.6211 57.1016L53.3516 54.8398C48.3984 59.3711 41.8789 62.2227 34.7109 62.5078ZM33.5312 60.0078C18.6992 60.0078 6.67969 47.9844 6.67969 33.1562C6.67969 18.3242 18.6992 6.30469 33.5312 6.30469C48.3594 6.30469 60.3789 18.3242 60.3789 33.1562C60.3789 47.9844 48.3594 60.0078 33.5312 60.0078ZM22.8906 36.9961H17.3008V36.9492L18.6602 35.8125C20.8203 33.9062 22.5898 31.9258 22.5898 29.4258C22.5898 26.7656 20.7813 24.8086 17.4102 24.8086C15.4297 24.8086 13.6797 25.4922 12.5898 26.3359L13.5703 28.7891C14.3398 28.2227 15.4609 27.5859 16.7305 27.5859C18.4297 27.5859 19.1406 28.5391 19.1406 29.7422C19.1211 31.4727 17.5508 33.1328 14.2891 36.043L12.4102 37.7461V39.8398H22.8906V36.9961ZM36.1406 33.7227H34.3906V25.0586H30.1406L24.5703 34.0625V36.3125H31.1211V39.8398H34.3906V36.3125H36.1406V33.7227ZM41.0781 22.7852H38.6719V45.5234H41.0781V22.7852ZM48.5586 39.8398L54.6484 27.2422V25.0586H44.2109V27.9023H50.9883V27.9492L44.8984 39.8398H48.5586ZM55.1289 53.0586L57.3984 55.3242C62.5391 49.7891 65.7891 42.4727 66.1016 34.4141H62.8789C62.5781 41.5977 59.6992 48.1133 55.1289 53.0586Z" fill="black"/>
</svg>
