<svg width="75" height="58" viewBox="0 0 75 58" fill="none" xmlns="http://www.w3.org/2000/svg">
<path d="M39.1484 3.03125C25.5508 3.03125 14.4883 14.0898 14.4883 27.6914C14.4883 41.2812 25.5508 52.3398 39.1484 52.3398C52.7461 52.3398 63.8125 41.2812 63.8125 27.6914C63.8125 14.0898 52.7461 3.03125 39.1484 3.03125ZM39.1484 50.3594C26.6445 50.3594 16.4727 40.1914 16.4727 27.6914C16.4727 15.1914 26.6445 5.01172 39.1484 5.01172C51.6523 5.01172 61.8281 15.1914 61.8281 27.6914C61.8281 40.1914 51.6523 50.3594 39.1484 50.3594ZM39.1484 7C27.7383 7 18.457 16.2812 18.457 27.6914C18.457 39.1016 27.7383 48.3789 39.1484 48.3789C50.5586 48.3789 59.8438 39.1016 59.8438 27.6914C59.8438 16.2812 50.5586 7 39.1484 7ZM39.1484 44.6914C29.7695 44.6914 22.1445 37.0586 22.1445 27.6914C22.1445 18.3086 29.7695 10.6797 39.1484 10.6797C48.5273 10.6797 56.1602 18.3086 56.1602 27.6914C56.1602 37.0586 48.5273 44.6914 39.1484 44.6914ZM13.2383 17.4492C13.2383 19.6484 12.5 21.2812 10.4492 22.4688L8.74219 23.3984V26.2695H5.41797V23.4297L3.64453 22.4414C1.49609 21.0313 0.921875 19.6914 0.921875 17.4492V3.85938H2.75781V17.2109C2.75781 17.6719 3.12891 18.0391 3.58984 18.0391C4.04687 18.0391 4.42188 17.6719 4.42188 17.2109V3.85938H6.26172V18.5391C6.26172 19 6.63672 19.3711 7.08984 19.3711C7.55469 19.3711 7.92578 19 7.92578 18.5391V3.85938H9.76562V17.2109C9.76562 17.6719 10.1367 18.0391 10.5977 18.0391C11.0586 18.0391 11.4297 17.6719 11.4297 17.2109V3.85938H13.2344L13.2383 17.4492ZM70.6484 23.2812H67.2461V6.32031C67.2461 0.730468 70.4727 0.730469 73.9648 0.730469L73.9766 26.3516H70.6484V23.2812ZM53.3242 27.6914C53.3242 35.5117 46.9727 41.8594 39.1484 41.8594C31.3203 41.8594 24.9766 35.5117 24.9766 27.6914C24.9766 19.8594 31.3203 13.5195 39.1484 13.5195C46.9727 13.5195 53.3242 19.8594 53.3242 27.6914ZM5.32422 29.1016C4.92578 29.5312 4.67188 30.1016 4.67188 30.7305V54.6406C4.67188 55.9688 5.75 57.0508 7.08203 57.0508C8.41406 57.0508 9.49219 55.9688 9.49219 54.6406V30.7305C9.49219 30.1016 9.23828 29.5312 8.83984 29.1016H5.32422ZM74.6016 30.3984C74.5273 29.9297 74.3125 29.5195 74.0039 29.1797H70.6172C70.2266 29.6016 69.9805 30.1484 69.9805 30.7695V31.0703C69.9766 31.1406 69.9609 31.2187 69.9609 31.2891V54.6406C69.9609 55.9688 71.0391 57.0508 72.3672 57.0508C73.6992 57.0508 74.7773 55.9688 74.7773 54.6406V31.2891C74.7773 30.9805 74.7148 30.6797 74.6016 30.3984Z" fill="black"/>
</svg>
