<svg width="53" height="53" viewBox="0 0 53 53" fill="none" xmlns="http://www.w3.org/2000/svg">
<path d="M35.3398 13.3438H39.3164L36.5898 28.7344C36.2852 30.5156 36.2773 31.8008 36.5586 32.5977C36.8437 33.3906 37.4766 33.7891 38.4648 33.7891C39.4453 33.7891 40.4141 33.5625 41.3594 33.1094C42.3047 32.6523 43.1562 31.9531 43.9141 31.0078C44.6719 30.0625 45.2852 28.8672 45.7617 27.4297C46.2344 25.9922 46.4688 24.2891 46.4688 22.3164C46.4688 19.4766 45.9961 17.0547 45.0508 15.0469C44.1055 13.043 42.8086 11.3867 41.1602 10.0781C39.5117 8.77344 37.5742 7.81641 35.3398 7.21094C33.1055 6.60547 30.6992 6.30078 28.125 6.30078C25.1719 6.30078 22.4297 6.83203 19.8906 7.89453C17.3555 8.95313 15.1484 10.4102 13.2773 12.2656C11.4023 14.1211 9.93359 16.3281 8.875 18.8828C7.8125 21.4375 7.28516 24.2109 7.28516 27.2031C7.28516 30.1562 7.73047 32.8047 8.61719 35.1523C9.50781 37.5 10.8047 39.4961 12.5078 41.1445C14.2109 42.793 16.3242 44.0586 18.8398 44.9492C21.3594 45.8398 24.2461 46.2852 27.5039 46.2852C28.6016 46.2852 29.8477 46.1523 31.25 45.8867C32.6523 45.6211 33.918 45.2227 35.0547 44.6953L36.8164 50.1445C35.2617 50.9023 33.6836 51.4336 32.0742 51.7383C30.4648 52.0391 28.6172 52.1914 26.5352 52.1914C22.8633 52.1914 19.4648 51.6602 16.3438 50.6016C13.2188 49.5391 10.5117 47.9687 8.22266 45.8867C5.92969 43.8047 4.14062 41.2187 2.85547 38.1367C1.56641 35.0508 0.921875 31.4805 0.921875 27.4297C0.921875 23.3047 1.66016 19.5742 3.13672 16.2422C4.61328 12.9102 6.60156 10.0703 9.10156 7.72266C11.6016 5.375 14.4961 3.57031 17.7891 2.30078C21.0859 1.03125 24.5664 0.398438 28.2422 0.398438C31.7227 0.398438 34.9609 0.898438 37.9531 1.89844C40.9414 2.91016 43.5352 4.33984 45.7305 6.21875C47.9297 8.08984 49.6523 10.3828 50.9023 13.0898C52.1484 15.7969 52.7734 18.875 52.7734 22.3164C52.7734 24.7422 52.3477 27.0117 51.4961 29.1328C50.6445 31.2539 49.4727 33.0898 47.9766 34.6406C46.4805 36.1953 44.7383 37.4258 42.75 38.332C40.7617 39.2422 38.6328 39.6953 36.3633 39.6953C35.4141 39.6953 34.5352 39.5937 33.7227 39.3828C32.9063 39.1758 32.2266 38.8242 31.6758 38.332C31.1289 37.8438 30.7188 37.1992 30.457 36.4023C30.1914 35.6094 30.1133 34.625 30.2266 33.4492H30C29.4336 34.2461 28.8164 35.0195 28.1562 35.7773C27.4922 36.5352 26.7656 37.207 25.9688 37.793C25.1719 38.3828 24.3008 38.8438 23.3555 39.1875C22.4102 39.5273 21.3672 39.6953 20.2344 39.6953C19.3242 39.6953 18.4531 39.4961 17.6211 39.1016C16.7852 38.7031 16.0664 38.1445 15.4609 37.4258C14.8555 36.707 14.375 35.8359 14.0156 34.8125C13.6523 33.7891 13.4727 32.6523 13.4727 31.4062C13.4727 29.0586 13.8516 26.7773 14.6094 24.5625C15.3672 22.3477 16.3984 20.3867 17.707 18.6836C19.0117 16.9805 20.5273 15.6094 22.25 14.5664C23.9727 13.5234 25.7969 13.0039 27.7305 13.0039C29.0547 13.0039 30.1719 13.2031 31.0781 13.6016C31.9883 13.9961 32.8203 14.5195 33.5781 15.1641L35.3398 13.3438ZM31.7617 20.2148C31.2695 19.8008 30.7578 19.4766 30.2266 19.25C29.6992 19.0234 29.0352 18.9102 28.2422 18.9102C27.1055 18.9102 26.0547 19.2344 25.0898 19.875C24.1211 20.5195 23.2891 21.3516 22.5898 22.375C21.8867 23.3984 21.3477 24.543 20.9727 25.8125C20.5938 27.0781 20.4023 28.3203 20.4023 29.5312C20.4023 30.7812 20.6602 31.8008 21.168 32.5977C21.6797 33.3906 22.5625 33.7891 23.8125 33.7891C24.3398 33.7891 24.9102 33.6289 25.5156 33.3086C26.1211 32.9844 26.707 32.5586 27.2734 32.0312C27.8437 31.5 28.3906 30.8945 28.9219 30.2109C29.4531 29.5312 29.9258 28.8125 30.3398 28.0547L31.7617 20.2148Z" fill="black"/>
</svg>
