<svg width="76" height="91" viewBox="0 0 76 91" fill="none" xmlns="http://www.w3.org/2000/svg">
<path d="M10.7998 82.1572C10.7998 81.2256 10.9814 80.3877 11.3447 79.6436C11.7139 78.8994 12.2236 78.3252 12.874 77.9209C13.5303 77.5166 14.2773 77.3145 15.1152 77.3145C16.4102 77.3145 17.4561 77.7627 18.2529 78.6592C19.0557 79.5557 19.457 80.748 19.457 82.2363V82.3506C19.457 83.2764 19.2783 84.1084 18.9209 84.8467C18.5693 85.5791 18.0625 86.1504 17.4004 86.5605C16.7441 86.9707 15.9883 87.1758 15.1328 87.1758C13.8438 87.1758 12.7979 86.7275 11.9951 85.8311C11.1982 84.9346 10.7998 83.748 10.7998 82.2715V82.1572ZM12.4346 82.3506C12.4346 83.4053 12.6777 84.252 13.1641 84.8906C13.6562 85.5293 14.3125 85.8486 15.1328 85.8486C15.959 85.8486 16.6152 85.5264 17.1016 84.8818C17.5879 84.2314 17.8311 83.3232 17.8311 82.1572C17.8311 81.1143 17.582 80.2705 17.084 79.626C16.5918 78.9756 15.9355 78.6504 15.1152 78.6504C14.3125 78.6504 13.665 78.9697 13.1729 79.6084C12.6807 80.2471 12.4346 81.1611 12.4346 82.3506ZM28.3691 78.8086H25.1787V87H23.5527V78.8086H20.4238V77.4902H28.3691V78.8086ZM29.1162 85.6729L29.6787 84.9785C30.3115 84.1582 30.6719 82.9277 30.7598 81.2871L30.9092 77.4902H37.0352V85.6729H38.2568V89.7949H36.6309V87H29.9951V89.7949H28.3691L28.3779 85.6729H29.1162ZM31.041 85.6729H35.4092V78.9932H32.4824L32.3857 81.2607C32.2861 83.1533 31.8379 84.624 31.041 85.6729ZM41.834 80.7686H44.3037C45.3818 80.7803 46.2344 81.0615 46.8613 81.6123C47.4883 82.1631 47.8018 82.9102 47.8018 83.8535C47.8018 84.8027 47.4795 85.5645 46.835 86.1387C46.1904 86.7129 45.3232 87 44.2334 87H40.208V77.4902H41.834V80.7686ZM51.1943 87H49.5596V77.4902H51.1943V87ZM41.834 82.0957V85.6729H44.251C44.8604 85.6729 45.332 85.5176 45.666 85.207C46 84.8906 46.167 84.46 46.167 83.915C46.167 83.3877 46.0029 82.957 45.6748 82.623C45.3525 82.2832 44.8984 82.1074 44.3125 82.0957H41.834ZM57.2236 80.9619L59.333 77.4902H61.2314L58.1201 82.1924L61.3281 87H59.4473L57.25 83.4404L55.0527 87H53.1631L56.3711 82.1924L53.2598 77.4902H55.1406L57.2236 80.9619Z" fill="#006400"/>
<g filter="url(#filter0_d)">
<path d="M5.51953 67V28.9609H20.3555C25.418 28.9609 29.2969 29.8516 31.9922 31.6328C34.7109 33.3906 36.0703 35.9805 36.0703 39.4023C36.0703 41.1602 35.543 42.7539 34.4883 44.1836C33.4336 45.5898 31.875 46.668 29.8125 47.418C32.1094 47.957 33.9492 49.0117 35.332 50.582C36.7383 52.1523 37.4414 54.0273 37.4414 56.207C37.4414 59.6992 36.1523 62.3711 33.5742 64.2227C31.0195 66.0742 27.3984 67 22.7109 67H5.51953ZM12.0234 50.3008V61.7617H22.7812C25.5 61.7617 27.5273 61.2578 28.8633 60.25C30.2227 59.2422 30.9023 57.8242 30.9023 55.9961C30.9023 52.1992 28.1133 50.3008 22.5352 50.3008H12.0234ZM12.0234 45.0977H20.4258C26.5195 45.0977 29.5664 43.3164 29.5664 39.7539C29.5664 36.1914 26.6836 34.3516 20.918 34.2344H12.0234V45.0977ZM70.6289 34.3398H53.0859V67H46.5469V28.9609H70.6289V34.3398Z" fill="#00FF00"/>
<path d="M5.51953 67H4.51953V68H5.51953V67ZM5.51953 28.9609V27.9609H4.51953V28.9609H5.51953ZM31.9922 31.6328L31.4408 32.4671L31.4492 32.4726L31.9922 31.6328ZM34.4883 44.1836L35.2883 44.7836L35.293 44.7772L34.4883 44.1836ZM29.8125 47.418L29.4708 46.4782L26.3174 47.6249L29.584 48.3915L29.8125 47.418ZM35.332 50.582L34.5815 51.2429L34.5871 51.2492L35.332 50.582ZM33.5742 64.2227L32.9909 63.4104L32.9874 63.413L33.5742 64.2227ZM12.0234 50.3008V49.3008H11.0234V50.3008H12.0234ZM12.0234 61.7617H11.0234V62.7617H12.0234V61.7617ZM28.8633 60.25L28.2677 59.4467L28.261 59.4517L28.8633 60.25ZM12.0234 45.0977H11.0234V46.0977H12.0234V45.0977ZM20.918 34.2344L20.9383 33.2346L20.9281 33.2344H20.918V34.2344ZM12.0234 34.2344V33.2344H11.0234V34.2344H12.0234ZM6.51953 67V28.9609H4.51953V67H6.51953ZM5.51953 29.9609H20.3555V27.9609H5.51953V29.9609ZM20.3555 29.9609C25.3243 29.9609 28.9775 30.8392 31.4408 32.4671L32.5435 30.7985C29.6162 28.864 25.5116 27.9609 20.3555 27.9609V29.9609ZM31.4492 32.4726C33.8641 34.0339 35.0703 36.2966 35.0703 39.4023H37.0703C37.0703 35.6643 35.5578 32.7473 32.5351 30.793L31.4492 32.4726ZM35.0703 39.4023C35.0703 40.944 34.6129 42.3302 33.6836 43.5899L35.293 44.7772C36.4731 43.1776 37.0703 41.3763 37.0703 39.4023H35.0703ZM33.6883 43.5836C32.776 44.7999 31.3961 45.778 29.4708 46.4782L30.1542 48.3578C32.3539 47.5579 34.0912 46.3798 35.2883 44.7836L33.6883 43.5836ZM29.584 48.3915C31.7055 48.8894 33.3532 49.848 34.5815 51.2429L36.0825 49.9212C34.5452 48.1754 32.5132 47.0246 30.041 46.4444L29.584 48.3915ZM34.5871 51.2492C35.8231 52.6293 36.4414 54.2643 36.4414 56.207H38.4414C38.4414 53.7904 37.6535 51.6754 36.077 49.9149L34.5871 51.2492ZM36.4414 56.207C36.4414 59.4147 35.2784 61.7676 32.9909 63.4104L34.1576 65.0349C37.0263 62.9746 38.4414 59.9837 38.4414 56.207H36.4414ZM32.9874 63.413C30.6681 65.0939 27.2849 66 22.7109 66V68C27.5119 68 31.3709 67.0546 34.1611 65.0324L32.9874 63.413ZM22.7109 66H5.51953V68H22.7109V66ZM11.0234 50.3008V61.7617H13.0234V50.3008H11.0234ZM12.0234 62.7617H22.7812V60.7617H12.0234V62.7617ZM22.7812 62.7617C25.5923 62.7617 27.8775 62.2463 29.4655 61.0483L28.261 59.4517C27.1772 60.2693 25.4077 60.7617 22.7812 60.7617V62.7617ZM29.4588 61.0533C31.0955 59.8399 31.9023 58.1114 31.9023 55.9961H29.9023C29.9023 57.5371 29.3498 58.6444 28.2677 59.4467L29.4588 61.0533ZM31.9023 55.9961C31.9023 53.8152 31.0791 52.0591 29.3732 50.8979C27.7363 49.7837 25.4064 49.3008 22.5352 49.3008V51.3008C25.242 51.3008 27.0957 51.7671 28.2479 52.5513C29.3311 53.2886 29.9023 54.3802 29.9023 55.9961H31.9023ZM22.5352 49.3008H12.0234V51.3008H22.5352V49.3008ZM12.0234 46.0977H20.4258V44.0977H12.0234V46.0977ZM20.4258 46.0977C23.5374 46.0977 26.0349 45.6487 27.7859 44.625C29.6197 43.553 30.5664 41.8863 30.5664 39.7539H28.5664C28.5664 41.184 27.9897 42.1892 26.7766 42.8984C25.4807 43.656 23.408 44.0977 20.4258 44.0977V46.0977ZM30.5664 39.7539C30.5664 37.6484 29.6857 35.9719 27.9423 34.8592C26.2731 33.7939 23.893 33.2946 20.9383 33.2346L20.8976 35.2342C23.7085 35.2913 25.6527 35.7706 26.8663 36.5451C28.0057 37.2723 28.5664 38.2969 28.5664 39.7539H30.5664ZM20.918 33.2344H12.0234V35.2344H20.918V33.2344ZM11.0234 34.2344V45.0977H13.0234V34.2344H11.0234ZM70.6289 34.3398V35.3398H71.6289V34.3398H70.6289ZM53.0859 34.3398V33.3398H52.0859V34.3398H53.0859ZM53.0859 67V68H54.0859V67H53.0859ZM46.5469 67H45.5469V68H46.5469V67ZM46.5469 28.9609V27.9609H45.5469V28.9609H46.5469ZM70.6289 28.9609H71.6289V27.9609H70.6289V28.9609ZM70.6289 33.3398H53.0859V35.3398H70.6289V33.3398ZM52.0859 34.3398V67H54.0859V34.3398H52.0859ZM53.0859 66H46.5469V68H53.0859V66ZM47.5469 67V28.9609H45.5469V67H47.5469ZM46.5469 29.9609H70.6289V27.9609H46.5469V29.9609ZM69.6289 28.9609V34.3398H71.6289V28.9609H69.6289Z" fill="#00FF00"/>
</g>
<defs>
<filter id="filter0_d" x="0.519531" y="27.9609" width="75.1094" height="48.0391" filterUnits="userSpaceOnUse" color-interpolation-filters="sRGB">
<feFlood flood-opacity="0" result="BackgroundImageFix"/>
<feColorMatrix in="SourceAlpha" type="matrix" values="0 0 0 0 0 0 0 0 0 0 0 0 0 0 0 0 0 0 127 0"/>
<feOffset dy="4"/>
<feGaussianBlur stdDeviation="2"/>
<feColorMatrix type="matrix" values="0 0 0 0 0 0 0 0 0 0 0 0 0 0 0 0 0 0 0.25 0"/>
<feBlend mode="normal" in2="BackgroundImageFix" result="effect1_dropShadow"/>
<feBlend mode="normal" in="SourceGraphic" in2="effect1_dropShadow" result="shape"/>
</filter>
</defs>
</svg>
