<svg width="66" height="65" viewBox="0 0 66 65" fill="none" xmlns="http://www.w3.org/2000/svg">
<path d="M36.8594 24.6484L44.6406 27.5L42.9492 34.9609L33.9688 25.9805L36.1602 25.9688L36.8594 24.6484ZM38.9805 50.3711L39.9297 50.3789V46.8594L35.8203 42.75V45.1797C35.8203 48.3789 36.3516 50.3711 38.9805 50.3711ZM17.5898 29.0195V39.3711C17.3086 41.2109 16.2305 41.7187 15.6992 41.8711V45.9609C15.6992 47.4687 15.8984 48.4805 16.2891 49.1484C16.6016 49.4609 16.9297 49.7695 17.2617 50.0586C17.75 50.3008 18.3398 50.3789 19.0195 50.3789L19.8008 50.3281V45.2188C19.8008 44.2109 20.2109 43.5312 20.8789 42.6016L21.8008 46.0117C22.6289 49.1016 23.4414 50.6484 27.2109 50.3398L23.9805 38.3008C24.4297 37.6094 24.8984 36.8086 25.3789 35.8281C25.4102 35.7812 25.4219 35.7305 25.4492 35.6797L25.5391 35.5312L30.3086 37.2383L19.1094 26.0391H18.8516C17.9805 26.0312 17.2812 25.3281 17.2812 24.4609C17.2812 24.3789 17.2891 24.3086 17.3008 24.2305L14.9102 21.8398C14.4102 22.5898 14.1211 23.4883 14.1211 24.4609C14.1211 26.6406 15.5898 28.4609 17.5898 29.0195ZM52.5 19.2812L46.2109 16.9297L44.9688 13.2383C44.3281 13.2383 43.9219 13.6211 43.7305 14.6719L42.8516 12.4609C42.0586 12.4609 41.5586 12.8711 41.3594 14.0391L40.8398 17.0508L37.6094 23.2109L24.6211 10.2305C24.1016 10.4297 23.5781 10.6602 23.0586 10.8984L36.8281 24.6797L37.6094 23.2383L44.9883 25.9492L45.3906 24.1719C45.3906 24.1719 48.3594 24.1719 49.3203 24.1719C50.9219 24.1719 51.6094 23.4883 52.4688 21.1602L52.9219 20.3008C53.0195 19.8516 52.8984 19.3516 52.5 19.2812ZM65.4219 32.3906C65.4219 50.2109 50.9219 64.7109 33.1016 64.7109C15.2812 64.7109 0.789062 50.2109 0.789062 32.3906C0.789062 14.5703 15.2812 0.078125 33.1016 0.078125C50.9219 0.078125 65.4219 14.5703 65.4219 32.3906ZM48.6914 52.8203L12.6797 16.8008L12.4805 17.0703C9.14062 21.5508 7.37109 26.8516 7.37109 32.3906C7.37109 46.5781 18.9102 58.1211 33.1016 58.1211C38.6406 58.1211 43.9492 56.3594 48.4297 53.0117L48.6914 52.8203ZM58.8281 32.3906C58.8281 18.1992 47.2891 6.66016 33.1016 6.66016C27.4687 6.66016 22.0898 8.48047 17.5703 11.9297L17.3086 12.1211L53.3711 48.1914L53.5703 47.9297C57.0117 43.3984 58.8281 38.0195 58.8281 32.3906Z" fill="black"/>
</svg>
