<svg width="63" height="69" viewBox="0 0 63 69" fill="none" xmlns="http://www.w3.org/2000/svg">
<path d="M32.1914 14.2617H19.8086V53.1289H26.3711V41.6484H32.1914C39.7422 41.6484 45.8867 35.5117 45.8867 27.9609C45.8867 20.4102 39.7422 14.2617 32.1914 14.2617ZM32.1914 35.0898H26.3711V20.8281H32.1914C36.1211 20.8281 39.3242 24.0312 39.3242 27.9609C39.3242 31.8906 36.1211 35.0898 32.1914 35.0898ZM62.6875 16.3711L60.7773 20.1719L31.6719 5.53125L2.14453 19.8906L0.285156 16.0703L31.7031 0.789062L62.6875 16.3711ZM50.9648 42.3711V20.9688H55.2188V46.1211C54.2031 44.4805 52.7266 43.1719 50.9648 42.3711ZM35.7656 55.8516H12.3164V20.9688H8.06641V60.1016H35.7852C35.7813 59.9805 35.7656 59.8516 35.7656 59.7188V55.8516ZM53.8203 51.4805L53.8242 53.6719H50.9883V51.4805C50.9883 49.2383 49.168 47.4219 46.9336 47.4219C44.6953 47.4219 42.8789 49.2383 42.8789 51.4805V53.6719H40.043V51.4805C40.043 47.6797 43.1328 44.5898 46.9336 44.5898C50.7305 44.5898 53.8203 47.6797 53.8203 51.4805ZM55.2227 55.8086H38.6016V59.7188C38.6016 64.3203 42.332 68.0508 46.9336 68.0508C51.5312 68.0508 55.2617 64.3203 55.2617 59.7188L55.2227 55.8086ZM48.3516 61.8086C48.3516 62.5898 47.7148 63.2188 46.9336 63.2188C46.1484 63.2188 45.5156 62.5898 45.5156 61.8086V59.5117C45.5156 58.7305 46.1484 58.0898 46.9336 58.0898C47.7148 58.0898 48.3516 58.7305 48.3516 59.5117V61.8086Z" fill="black"/>
</svg>
