<svg width="56" height="63" viewBox="0 0 56 63" fill="none" xmlns="http://www.w3.org/2000/svg">
<path d="M55.9961 16.1953V20.4492H40.4805V34.7578C40.1797 34.5937 39.8867 34.4219 39.5977 34.2383L38.0781 33.2734L36.5547 34.2383C35.9414 34.6289 35.3047 34.9688 34.6484 35.2656L22.3281 35.2539C21.668 34.957 21.0234 34.6094 20.4102 34.2148L18.8828 33.2383L17.3555 34.2148C16.8203 34.5586 16.2656 34.8555 15.6992 35.125V8.87891C15.6992 7.55078 15.3125 6.48047 14.5898 5.76953C13.9766 5.17188 13.1445 4.83984 12.25 4.83984C10.7734 4.83984 9.05078 5.76953 9.05078 8.39062V11.7617C9.05078 12.9414 8.09766 13.8906 6.92578 13.8906C5.75 13.8906 4.80078 12.9414 4.80078 11.7617V8.39062C4.80078 3.26953 8.54688 0.589844 12.25 0.589844C14.2617 0.589844 16.1484 1.35156 17.5586 2.73047C18.6484 3.78906 19.9492 5.73047 19.9492 8.87891V16.1953H33.3828L33.3789 20.4492H19.9492V24.1953L36.2266 24.2109V8.87891C36.2266 7.55078 35.8437 6.48047 35.1172 5.76953C34.5078 5.17188 33.6758 4.83984 32.7773 4.83984C31.3047 4.83984 29.582 5.76953 29.582 8.39062V11.7617C29.582 12.9414 28.6289 13.8906 27.457 13.8906C26.2813 13.8906 25.3281 12.9414 25.3281 11.7617V8.39062C25.3281 3.26953 29.0781 0.589844 32.7773 0.589844C34.793 0.589844 36.6797 1.35156 38.0898 2.73047C39.1797 3.78906 40.4805 5.73047 40.4805 8.87891V16.1953H55.9961ZM36.2266 27.8984L19.9492 27.8828V31.5664L36.2266 31.582V27.8984ZM12.8555 16.1953H0.921875V20.4492H12.8516L12.8555 16.1953ZM1.00391 57.9375H55.9141V62.1914H1.00391V57.9375ZM38.0781 36.6328C35.207 38.457 31.9141 39.4141 28.5 39.4141C25.0625 39.4141 21.7578 38.4453 18.8828 36.6055C16.0039 38.4453 12.6992 39.4141 9.26562 39.4141C6.375 39.4141 3.57031 38.7266 1.03906 37.4102L1.03125 44.0469L1.23828 44.1719C3.64063 45.7422 6.42578 46.5781 9.29297 46.5781C12.1602 46.5781 14.9453 45.7422 17.3438 44.168L18.8398 43.1953L20.4297 44.1719C22.832 45.7422 25.6172 46.5781 28.4805 46.5781C31.3477 46.5781 34.1367 45.7422 36.5391 44.1719L38.0273 43.1953L39.6211 44.1719C42.0234 45.7422 44.8047 46.5781 47.6758 46.5781C50.5352 46.5781 53.2422 45.7461 55.8828 44.0625L55.8867 37.4062C53.3477 38.7227 50.543 39.4141 47.6523 39.4141C44.2344 39.4141 40.9453 38.457 38.0781 36.6328ZM38.0391 46.5977C35.2617 48.4805 31.9258 49.4766 28.4922 49.4766C25.0547 49.4766 21.7227 48.4805 18.8477 46.5977C16.0703 48.4805 12.7344 49.4766 9.30469 49.4766C6.40234 49.4766 3.57813 48.7578 1.03516 47.4062L1.02734 54.8789H55.8867L55.8906 47.4062C53.4492 48.7461 50.5898 49.4766 47.6836 49.4766C44.25 49.4766 40.9141 48.4805 38.0391 46.5977Z" fill="black"/>
</svg>
