<svg width="71" height="57" viewBox="0 0 71 57" fill="none" xmlns="http://www.w3.org/2000/svg">
<path d="M70.9688 56.6914L65.4883 56.7109L65.4688 46.6602L52.4883 46.6797C53.7305 44.4492 53.8203 41.6484 52.5117 39.2695L65.4609 39.25L65.4414 29.8516L70.9219 29.8281L70.9688 56.6914ZM42.1211 39.2891C40.0898 41.3086 40.0781 44.6016 42.0898 46.6289C44.1094 48.6602 47.3984 48.6719 49.4297 46.6484C51.4609 44.6289 51.4805 41.3516 49.4492 39.3086C47.4297 37.2813 44.1484 37.2695 42.1211 39.2891ZM40.8516 1.25C39.3398 -0.269527 36.8789 -0.269527 35.3711 1.23829L4.66016 31.8906C3.14062 33.3984 3.14062 35.8516 4.66016 37.3789L14.5312 47.2695C16.0391 48.7813 18.4883 48.7813 20.0117 47.2695L33.2383 34.0586L38.8281 39.6914C39.1992 38.8906 39.7109 38.1406 40.3594 37.4883C41.0117 36.8516 41.7383 36.3516 42.5195 35.9883L36.9414 30.3711L50.7109 16.6211C52.2305 15.1094 52.2305 12.6484 50.7188 11.1406L40.8516 1.25ZM3.28125 39.5781L0.628906 42.25L2.16016 43.7813L0.378906 45.5898C0.0117189 45.9609 0.0117189 46.5703 0.378906 46.9297L5.82812 52.3008C6.19922 52.6719 6.80078 52.6602 7.17187 52.2891L8.91016 50.5195L10.1992 51.8008L12.8594 49.1406L3.28125 39.5781Z" fill="black"/>
</svg>
