<svg width="72" height="56" viewBox="0 0 72 56" fill="none" xmlns="http://www.w3.org/2000/svg">
<path d="M24.8867 16.6055L22.2852 14.3633C25.5508 10.4141 30.4883 7.89844 36.0078 7.89453C41.2617 7.89844 45.9727 10.1914 49.2344 13.8164L47.8086 15.0508L46.6367 16.0586C44.0039 13.1602 40.2227 11.3242 36.0078 11.3164C31.5313 11.3242 27.5273 13.3867 24.8867 16.6055ZM27.4609 18.8203L30.0625 21.0586C31.4492 19.2891 33.5977 18.1484 36.0078 18.1484C38.1602 18.1484 40.1016 19.0586 41.4805 20.5117L44.0703 18.2734C42.0625 16.0977 39.1953 14.7266 36.0078 14.7227C32.5547 14.7266 29.4766 16.3242 27.4609 18.8203ZM36.0078 21.6133C33.7461 21.6133 31.9141 23.4414 31.9141 25.7031C31.9141 27.9648 33.7461 29.8008 36.0078 29.8008C38.2695 29.8008 40.1016 27.9648 40.1016 25.7031C40.1016 23.4414 38.2695 21.6133 36.0078 21.6133ZM68.7031 52.4141H2.79298C1.99219 52.4141 1.21094 52.2305 0.507819 51.9062C0.453131 52.707 0.468756 55.2461 2.83594 55.2461C3.20704 55.2461 68.1524 55.2461 68.6484 55.2461C71.0078 55.2461 71.0313 52.7227 70.9805 51.9141C70.2813 52.2266 69.5117 52.4141 68.7031 52.4141ZM70.4961 45.1719L63.7344 34.5078V6.21875C63.7344 3.27344 61.3516 0.890625 58.4102 0.890625H13.0899C10.1445 0.890625 7.76172 3.27344 7.76172 6.21875V34.5078L0.992194 45.1719C0.343756 46.1953 0.113288 47.3164 0.550788 48.2617C0.910163 49.0469 1.82813 49.5781 2.79298 49.5781H68.7031C69.793 49.5781 70.8125 48.9297 71.0977 47.9414C71.375 46.9805 70.9961 46.0469 70.4961 45.1719ZM11.4531 7.09375C11.4531 6.41797 11.7149 5.78125 12.1953 5.30078C12.668 4.82031 13.3047 4.55859 13.9844 4.55859H57.5352C58.2109 4.55859 58.8477 4.82031 59.3242 5.30078C59.8047 5.78516 60.0703 6.42187 60.0664 7.08984V31.0273C60.0703 31.7031 59.8047 32.3398 59.3242 32.8125C58.8438 33.2969 58.2617 33.5586 57.5352 33.5586C57.0274 33.5586 13.9844 33.5586 13.9844 33.5586C13.3008 33.5586 12.668 33.2969 12.1953 32.8125C11.7149 32.3398 11.4531 31.7031 11.4531 31.0234V7.09375ZM10.6602 36.8125H60.8359L62.0938 38.7969H9.40235L10.6602 36.8125ZM8.48438 40.2461H63.0117L64.2695 42.2305H7.22266L8.48438 40.2461ZM24.1836 45.7227H5.00782L6.26563 43.7383H24.9727L24.1836 45.7227ZM47.3086 45.7227L46.5234 43.7383H65.2227L66.4805 45.7227H47.3086Z" fill="black"/>
</svg>
